{
	"asset":{
		"generator":"Khronos glTF Blender I/O v4.0.44",
		"version":"2.0"
	},
	"scene":0,
	"scenes":[
		{
			"name":"Scene",
			"nodes":[
				0,
				1,
				2
			]
		}
	],
	"nodes":[
		{
			"mesh":0,
			"name":"donut.002",
			"translation":[
				-0.25888559222221375,
				0.01668047159910202,
				-0.028720680624246597
			]
		},
		{
			"mesh":1,
			"name":"icing.002",
			"translation":[
				-0.25888559222221375,
				0.01668047159910202,
				-0.028720680624246597
			]
		},
		{
			"mesh":2,
			"name":"icing.003",
			"translation":[
				-0.25888559222221375,
				0.01668047159910202,
				-0.028720680624246597
			]
		}
	],
	"materials":[
		{
			"doubleSided":true,
			"name":"Material.003",
			"pbrMetallicRoughness":{
				"baseColorTexture":{
					"index":0
				},
				"metallicFactor":0,
				"roughnessFactor":0.5
			}
		},
		{
			"doubleSided":true,
			"name":"Material.002",
			"pbrMetallicRoughness":{
				"baseColorFactor":[
					0.8052417039871216,
					0.2700091302394867,
					0.5123087167739868,
					1
				],
				"metallicFactor":0,
				"roughnessFactor":0.29646018147468567
			}
		},
		{
			"doubleSided":true,
			"name":"Material.005",
			"pbrMetallicRoughness":{
				"baseColorTexture":{
					"index":1
				},
				"metallicFactor":0,
				"roughnessFactor":0.30000001192092896
			}
		}
	],
	"meshes":[
		{
			"name":"Torus.009",
			"primitives":[
				{
					"attributes":{
						"POSITION":0,
						"NORMAL":1,
						"TEXCOORD_0":2
					},
					"indices":3,
					"material":0
				}
			]
		},
		{
			"name":"Torus.010",
			"primitives":[
				{
					"attributes":{
						"POSITION":4,
						"NORMAL":5,
						"TEXCOORD_0":6
					},
					"indices":7,
					"material":1
				}
			]
		},
		{
			"name":"Torus.011",
			"primitives":[
				{
					"attributes":{
						"POSITION":8,
						"NORMAL":9,
						"TEXCOORD_0":10
					},
					"indices":11,
					"material":2
				}
			]
		}
	],
	"textures":[
		{
			"sampler":0,
			"source":0
		},
		{
			"sampler":0,
			"source":1
		}
	],
	"images":[
		{
			"mimeType":"image/png",
			"name":"donut base",
			"uri":"donut%20base.png"
		},
		{
			"mimeType":"image/jpeg",
			"name":"color2",
			"uri":"color2.jpg"
		}
	],
	"accessors":[
		{
			"bufferView":0,
			"componentType":5126,
			"count":1741,
			"max":[
				0.055411793291568756,
				0.024189285933971405,
				0.05554094910621643
			],
			"min":[
				-0.054439131170511246,
				-0.022307001054286957,
				-0.055091265588998795
			],
			"type":"VEC3"
		},
		{
			"bufferView":1,
			"componentType":5126,
			"count":1741,
			"type":"VEC3"
		},
		{
			"bufferView":2,
			"componentType":5126,
			"count":1741,
			"type":"VEC2"
		},
		{
			"bufferView":3,
			"componentType":5123,
			"count":9216,
			"type":"SCALAR"
		},
		{
			"bufferView":4,
			"componentType":5126,
			"count":27560,
			"max":[
				0.05765886604785919,
				0.02626509964466095,
				0.05768385902047157
			],
			"min":[
				-0.056461162865161896,
				-0.020625192672014236,
				-0.05697368085384369
			],
			"type":"VEC3"
		},
		{
			"bufferView":5,
			"componentType":5126,
			"count":27560,
			"type":"VEC3"
		},
		{
			"bufferView":6,
			"componentType":5126,
			"count":27560,
			"type":"VEC2"
		},
		{
			"bufferView":7,
			"componentType":5123,
			"count":164736,
			"type":"SCALAR"
		},
		{
			"bufferView":8,
			"componentType":5126,
			"count":24877,
			"max":[
				0.05705327168107033,
				0.02780158817768097,
				0.056887924671173096
			],
			"min":[
				-0.05228663608431816,
				0.0030196979641914368,
				-0.05442814156413078
			],
			"type":"VEC3"
		},
		{
			"bufferView":9,
			"componentType":5126,
			"count":24877,
			"type":"VEC3"
		},
		{
			"bufferView":10,
			"componentType":5126,
			"count":24877,
			"type":"VEC2"
		},
		{
			"bufferView":11,
			"componentType":5123,
			"count":90588,
			"type":"SCALAR"
		}
	],
	"bufferViews":[
		{
			"buffer":0,
			"byteLength":20892,
			"byteOffset":0,
			"target":34962
		},
		{
			"buffer":0,
			"byteLength":20892,
			"byteOffset":20892,
			"target":34962
		},
		{
			"buffer":0,
			"byteLength":13928,
			"byteOffset":41784,
			"target":34962
		},
		{
			"buffer":0,
			"byteLength":18432,
			"byteOffset":55712,
			"target":34963
		},
		{
			"buffer":0,
			"byteLength":330720,
			"byteOffset":74144,
			"target":34962
		},
		{
			"buffer":0,
			"byteLength":330720,
			"byteOffset":404864,
			"target":34962
		},
		{
			"buffer":0,
			"byteLength":220480,
			"byteOffset":735584,
			"target":34962
		},
		{
			"buffer":0,
			"byteLength":329472,
			"byteOffset":956064,
			"target":34963
		},
		{
			"buffer":0,
			"byteLength":298524,
			"byteOffset":1285536,
			"target":34962
		},
		{
			"buffer":0,
			"byteLength":298524,
			"byteOffset":1584060,
			"target":34962
		},
		{
			"buffer":0,
			"byteLength":199016,
			"byteOffset":1882584,
			"target":34962
		},
		{
			"buffer":0,
			"byteLength":181176,
			"byteOffset":2081600,
			"target":34963
		}
	],
	"samplers":[
		{
			"magFilter":9729,
			"minFilter":9987
		}
	],
	"buffers":[
		{
			"byteLength":2262776,
			"uri":"pleasedonut.bin"
		}
	]
}
